# xmcd CD database file
#
# Track frame offsets:
#	150
#	5000
#	22288
#	42335
#	61778
#	81841
#	104229
#	124677
#	143826
#	166191
#	183315
#	201568
#	218119
#	233372
#	252162
#
# Disc length: 3653 seconds
#
# Revision: 2
# Processed by: cddbd v1.5.2PL0 Copyright (c) Steve Scherf et al.
# Submitted via: CDex 1.70beta2
#
DISCID=d30e430f
DTITLE=遊助 - あの・・涙があるから愛があるんですケド。
DYEAR=2012
DGENRE=J-Pop
TTITLE0=Introduction
TTITLE1=一笑懸命
TTITLE2=空飛ぶ電車
TTITLE3=Baby Baby
TTITLE4=I'll try my best
TTITLE5=全部好き。
TTITLE6=イナヅマ侍
TTITLE7=今夜は無礼講 遊turing 餓鬼レンジャー
TTITLE8=History
TTITLE9=涙の金メダル
TTITLE10=ガラスのエース 遊turing 柴田知美
TTITLE11=雄叫び
TTITLE12=君が消えた日
TTITLE13=レインボー
TTITLE14=かすみ草
EXTD=YEAR: 2012
EXTT0=
EXTT1=
EXTT2=
EXTT3=
EXTT4=
EXTT5=
EXTT6=
EXTT7=
EXTT8=
EXTT9=
EXTT10=
EXTT11=
EXTT12=
EXTT13=
EXTT14=
PLAYORDER=
